<svg width="10" height="10" viewBox="0 0 10 10" fill="none" xmlns="http://www.w3.org/2000/svg">
<path d="M9.47656 8.14844C9.83203 8.47656 9.83203 9.05078 9.47656 9.37891C9.3125 9.54297 9.09375 9.625 8.875 9.625C8.62891 9.625 8.41016 9.54297 8.24609 9.37891L5.375 6.50781L2.47656 9.37891C2.3125 9.54297 2.09375 9.625 1.875 9.625C1.62891 9.625 1.41016 9.54297 1.24609 9.37891C0.890625 9.05078 0.890625 8.47656 1.24609 8.14844L4.11719 5.25L1.24609 2.37891C0.890625 2.05078 0.890625 1.47656 1.24609 1.14844C1.57422 0.792969 2.14844 0.792969 2.47656 1.14844L5.375 4.01953L8.24609 1.14844C8.57422 0.792969 9.14844 0.792969 9.47656 1.14844C9.83203 1.47656 9.83203 2.05078 9.47656 2.37891L6.60547 5.27734L9.47656 8.14844Z" fill="#999999"/>
</svg>
