<svg width="24" height="24" viewBox="0 0 24 24" fill="none" xmlns="http://www.w3.org/2000/svg">
<path d="M8.75 12C8.75 12.9688 7.9375 13.75 7 13.75C6.03125 13.75 5.25 12.9688 5.25 12C5.25 11.0625 6.03125 10.25 7 10.25C7.9375 10.25 8.75 11.0625 8.75 12ZM13.75 12C13.75 12.9688 12.9375 13.75 12 13.75C11.0312 13.75 10.25 12.9688 10.25 12C10.25 11.0625 11.0312 10.25 12 10.25C12.9375 10.25 13.75 11.0625 13.75 12ZM15.25 12C15.25 11.0625 16.0312 10.25 17 10.25C17.9375 10.25 18.75 11.0625 18.75 12C18.75 12.9688 17.9375 13.75 17 13.75C16.0312 13.75 15.25 12.9688 15.25 12Z" fill="#CBCBCB"/>
</svg>
